<svg width="22" height="24" viewBox="0 0 22 24" fill="none" xmlns="http://www.w3.org/2000/svg">
<path id="Vector" d="M10.2129 3.32222C10.1341 3.55199 10.0916 3.79598 10.0916 4.04873C10.0916 4.5017 10.4989 4.86934 11.0007 4.86934H16.4553C16.6964 4.86934 16.9276 4.78288 17.0981 4.62899C17.2686 4.47509 17.3644 4.26637 17.3644 4.04873C17.3645 3.80245 17.3236 3.55755 17.2432 3.32222M10.2129 3.32222C10.385 2.81968 10.7309 2.38009 11.1998 2.06783C11.6688 1.75557 12.2362 1.58704 12.8189 1.58691H14.6371C15.8638 1.58691 16.9001 2.3178 17.2432 3.32222M10.2129 3.32222C9.7571 3.34739 9.30376 3.37693 8.85043 3.40975C7.47952 3.5126 6.45528 4.56626 6.45528 5.80811V8.15176M17.2432 3.32222C17.6989 3.34739 18.1522 3.37693 18.6056 3.40975C19.9765 3.5126 21.0007 4.56626 21.0007 5.80811V17.1784C21.0007 17.8313 20.7134 18.4575 20.2019 18.9192C19.6905 19.3809 18.9968 19.6402 18.2735 19.6402H15.5462M6.45528 8.15176H2.36437C1.61164 8.15176 1.00073 8.7032 1.00073 9.38266V21.6917C1.00073 22.3712 1.61164 22.9227 2.36437 22.9227H14.1826C14.9353 22.9227 15.5462 22.3712 15.5462 21.6917V19.6402M6.45528 8.15176H14.1826C14.9353 8.15176 15.5462 8.7032 15.5462 9.38266V19.6402M5.54619 16.3578L7.36437 17.999L11.0007 13.896" stroke="white" stroke-width="1.5" stroke-linecap="round" stroke-linejoin="round"/>
</svg>
