<svg width="10" height="10" viewBox="0 0 30 30" fill="none" xmlns="http://www.w3.org/2000/svg">
<path id="Vector" d="M20 3.62589L23 6.70532M23 6.70532L26 9.78476M23 6.70532L26 3.62589M23 6.70532L20 9.78476M22 28.2613C10.9547 28.2613 2 19.0696 2 7.7318V4.65237C2 3.83565 2.31607 3.05239 2.87868 2.47488C3.44129 1.89738 4.20435 1.57294 5 1.57294H6.82933C7.51733 1.57294 8.11733 2.05333 8.284 2.73902L9.75867 8.79249C9.90533 9.39469 9.68667 10.027 9.20267 10.3979L7.47867 11.7255C7.23191 11.9088 7.04933 12.169 6.95806 12.4673C6.86678 12.7657 6.87167 13.0863 6.972 13.3815C7.7745 15.6222 9.04188 17.6569 10.6864 19.345C12.3309 21.033 14.3132 22.334 16.496 23.1577C17.084 23.3794 17.7333 23.1522 18.1093 22.6376L19.4027 20.868C19.5797 20.6254 19.8225 20.4418 20.1008 20.3403C20.379 20.2388 20.6802 20.2238 20.9667 20.2973L26.864 21.811C27.5307 21.982 28 22.5979 28 23.3041V25.1819C28 25.9986 27.6839 26.7819 27.1213 27.3594C26.5587 27.9369 25.7956 28.2613 25 28.2613H22Z" stroke="white" stroke-width="3" stroke-linecap="round" stroke-linejoin="round"/>
</svg>
